Coordinates
version=1
nRows=19
nColumns=36
inDegrees=yes

Units are S.I. units (second, meters, Newtons, ...)
If the header above contains a line with 'inDegrees', this indicates whether rotational values are in degrees (yes) or radians (no).

endheader
time	pelvis_tilt	pelvis_list	pelvis_rotation	pelvis_tx	pelvis_ty	pelvis_tz	hip_flexion_r	hip_adduction_r	hip_rotation_r	knee_angle_r	knee_angle_r_beta	ankle_angle_r	subtalar_angle_r	mtp_angle_r	hip_flexion_l	hip_adduction_l	hip_rotation_l	knee_angle_l	knee_angle_l_beta	ankle_angle_l	subtalar_angle_l	mtp_angle_l	lumbar_extension	lumbar_bending	lumbar_rotation	arm_flex_r	arm_add_r	arm_rot_r	elbow_flex_r	pro_sup_r	arm_flex_l	arm_add_l	arm_rot_l	elbow_flex_l	pro_sup_l
      1.76666670	     -1.33500348	     -0.93624268	     -0.71083795	     -0.99446770	      1.35890700	     -0.05303064	     -2.95758946	      2.23111826	      4.91902743	      0.73849557	      0.01288918	      1.86789267	     -9.49913139	     -7.49999985	      0.15232362	     -2.03867314	      6.42087742	      6.66604086	      0.11634436	      4.71442144	    -12.05686872	     -7.49999985	     -2.79961029	      2.15288273	      3.08918368	      1.58537276	    -25.53037720	    -11.76657472	    112.60715361	     88.62404784	     -3.88873326	     -8.25810011	     10.80052981	     39.38850787	     75.80820745
      1.78333330	     -1.42249586	     -1.00064437	     -0.45361232	     -1.00183695	      1.35882376	     -0.04762747	     -2.67230796	      2.40823809	      4.93752991	      1.06525125	      0.01859214	      2.00285997	    -10.08849642	     -7.49999985	     -0.72106227	     -2.13443784	      7.03941988	      4.82630224	      0.08423486	      4.55612504	    -11.80930707	     -7.49999985	     -2.29739137	      2.05523082	      2.71118695	      3.66189506	    -26.36092264	    -12.63841836	    115.48963566	     88.81384309	     -3.83639046	     -8.49275930	     10.73016616	     39.26307498	     75.74178312
      1.80000000	     -1.11941401	     -1.06868917	     -0.04414947	     -1.00205087	      1.35252849	     -0.04740325	     -2.69928359	      2.62644403	      5.33987884	      1.52755997	      0.02666095	      1.70292728	    -11.77283455	     -7.49999985	     -1.75758693	     -2.26584349	      8.00792716	      3.45134469	      0.06023733	      4.35390369	    -12.13193719	     -7.49999985	     -2.60375220	      1.86803565	      2.48841411	      6.21086520	    -27.71391842	    -12.88886675	    118.50573669	     88.56591203	     -3.44859075	     -8.89650768	     10.93455102	     39.56246826	     74.59731979
      1.81666670	     -0.92684750	     -1.11323403	      0.28248054	     -0.99549682	      1.36065718	     -0.05335399	     -2.62136977	      2.75588536	      5.31544621	      2.12432462	      0.03707646	      1.71219053	    -12.63735284	     -7.49999985	     -2.68296322	     -2.34310203	      8.42920793	      2.21774643	      0.03870698	      4.45123998	    -11.63566056	     -7.49999985	     -2.39068967	      1.73199228	      2.27043695	      8.72710324	    -29.16848643	    -13.17925335	    121.11037995	     89.05093486	     -3.01529020	     -9.02726277	     11.87105888	     38.97757501	     74.34483861
      1.83333330	     -0.72873837	     -1.21599476	      0.54281043	     -0.99566677	      1.36143716	     -0.05360989	     -2.53725290	      2.95076176	      5.33178443	      2.68464590	      0.04685591	      1.66765397	    -13.51307280	     -7.49999985	     -3.48251370	     -2.47205159	      8.74514600	      1.25362454	      0.02187988	      4.51439211	    -11.16750381	     -7.49999985	     -2.12946682	      1.70373058	      1.91048899	     12.66948670	    -30.86672454	    -12.42089249	    122.93238474	     87.11481200	     -2.91263574	     -9.25342719	     12.54726448	     38.53392803	     72.68416565
      1.85000000	     -0.61163931	     -1.29477391	      0.90045584	     -0.99618378	      1.36160494	     -0.05496546	     -2.37892039	      3.11363390	      5.33102062	      3.20539311	      0.05594466	      1.60072405	    -14.35649624	     -7.49999986	     -3.92022505	     -2.54372487	      9.17952739	      0.76147419	      0.01329023	      4.51281753	    -11.01264969	     -7.49999986	     -1.71589337	      1.79202910	      1.56856748	     17.38906716	    -32.18122099	    -11.16503302	    124.09419709	     89.66806265	     -2.59093285	     -9.59680147	     14.68514750	     37.70516911	     69.66466137
      1.86666670	     -0.56822152	     -1.31675429	      1.10381526	     -0.99639574	      1.36570918	     -0.05481100	     -2.08913150	      3.20940012	      5.28702040	      3.78992113	      0.06614660	      1.78201934	    -14.74397297	     -7.49999986	     -4.14042757	     -2.57636739	      9.25638357	      0.51722587	      0.00902729	      4.56849092	    -10.62285413	     -7.49999986	     -1.44088989	      1.54983196	      1.72879885	     20.75873241	    -33.02489970	    -11.02838304	    126.44631414	     89.64176553	     -2.09180480	     -9.70564155	     14.81725864	     37.03066956	     69.60619955
      1.88333330	     -0.37890687	     -1.37370817	      1.38991440	     -0.99053577	      1.36118307	     -0.06087956	     -2.03531326	      3.26049917	      5.32295907	      4.42276851	      0.07719187	      1.72328430	    -15.38382926	     -7.49999986	     -4.54848299	     -2.57383562	      9.42033122	      0.41015676	      0.00715859	      4.66592284	    -10.21388095	     -7.49999986	     -1.02559014	      1.54443054	      0.77379022	     25.41196040	    -33.66625595	     -8.19111826	    128.73849435	     87.07336568	     -2.46377272	     -9.69481940	     14.64807445	     36.56483265	     68.35980343
      1.90000000	     -0.30516415	     -1.38183143	      1.55219572	     -0.99086257	      1.36174038	     -0.06045054	     -1.99057389	      3.26080431	      5.41076376	      4.80432839	      0.08385135	      1.99740589	    -15.59448290	     -7.49999986	     -4.78788697	     -2.51686988	      9.48073570	      0.34347096	      0.00599470	      4.75322876	     -9.93666931	     -7.49999986	     -0.63339868	      1.25904138	      1.20735680	     28.91077382	    -33.79818572	     -7.58983233	    130.92526448	     87.10863203	     -2.31305493	     -9.69265196	     14.66353818	     36.26468982	     68.34010589
      1.91666670	     -0.19350884	     -1.40590009	      1.84665288	     -0.99123855	      1.36185053	     -0.06122764	     -2.26147399	      3.27109500	      5.49382037	      4.69571083	      0.08195561	      2.15960397	    -15.82067159	     -7.49999987	     -4.92234199	     -2.53776905	      9.54514159	      0.31941961	      0.00557492	      4.79339686	     -9.81882592	     -7.49999987	     -0.15840499	      1.21762211	     -0.69825376	     35.89944743	    -33.01289183	     -2.67386958	    130.53773386	     86.03784562	     -3.48563812	    -10.03455922	     12.91240409	     37.07476269	     67.86149823
      1.93333330	     -0.29614689	     -1.47723381	      2.01287986	     -0.99097548	      1.35437908	     -0.06138345	     -2.27769839	      3.30959134	      5.48751123	      4.63366508	      0.08087271	      2.44882473	    -15.69550631	     -7.49999987	     -4.81998525	     -2.60878243	      9.51237059	      0.31722927	      0.00553670	      4.93892111	     -9.66922915	     -7.49999987	      0.44367255	      0.79320243	     -0.76970477	     41.38874371	    -33.53467990	     -2.11751086	    131.00001457	     82.99528323	     -4.10641907	    -10.52486774	     11.91046216	     38.85123332	     66.71572849
      1.95000000	      0.00680795	     -1.57894683	      2.10622876	     -0.99137929	      1.35129759	     -0.06226152	     -2.69940211	      3.43140426	      5.78490597	      4.57724756	      0.07988804	      2.77079963	    -16.13231443	     -7.49999987	     -5.12154871	     -2.73175681	      9.37569593	      0.31743903	      0.00554036	      5.33006984	     -9.44624807	     -7.49999987	      0.56580380	      0.86308642	     -3.42254176	     50.36225222	    -32.07938849	      3.31622471	    127.85810484	     84.21565644	     -6.61124718	    -10.26280968	      4.97916059	     41.41156888	     71.47270373
      1.96666670	      0.08271627	     -1.65058193	      2.15477101	     -0.99092215	      1.35620081	     -0.06270023	     -2.91353205	      3.47781887	      5.90835799	      4.43605330	      0.07742374	      3.12553942	    -16.09466081	     -7.49999987	     -5.15651685	     -2.83979583	      9.22675233	      0.31636038	      0.00552153	      5.52627430	     -9.29518191	     -7.49999987	      0.79295710	      0.89262965	     -3.86079159	     58.09016891	    -32.57087765	      6.10089971	    125.59139181	     83.11756462	     -7.26264489	    -10.49253517	      3.44086317	     42.61336887	     71.68299239
      1.98333330	      0.07564528	     -1.69822200	      2.16907092	     -0.99105466	      1.35648366	     -0.06324443	     -2.99567526	      3.52133975	      5.96821804	      4.40762069	      0.07692749	      3.46159434	    -16.04236972	     -7.49999987	     -5.12316159	     -2.89171449	      9.19623225	      0.32248528	      0.00562843	      5.49003375	     -9.29674633	     -7.49999987	      1.16275981	      0.78288348	     -4.47240970	     64.85880557	    -33.05247928	      8.58789979	    122.80741883	     81.94277489	     -7.48489314	    -10.98918501	      2.28331818	     43.08170402	     71.51401911
      2.00000000	      0.10142694	     -1.67704149	      2.06348899	     -0.99044339	      1.36105874	     -0.06281032	     -3.20574682	      3.50432293	      5.97436311	      4.27745540	      0.07465568	      3.74045937	    -15.89997503	     -7.49999987	     -5.16872994	     -2.90040931	      8.87968802	      0.32593137	      0.00568858	      5.53380468	     -8.99929444	     -7.49999987	      1.35051441	      0.59051103	     -5.08431868	     71.84505721	    -32.58432255	     11.33618220	    119.10725093	     81.44662294	     -7.71711886	    -11.16093102	     -0.16818690	     43.38978535	     71.96478220
      2.01666670	      0.00339988	     -1.68279171	      2.06003345	     -0.99065533	      1.35653477	     -0.06384503	     -3.21080168	      3.51850956	      5.80913891	      4.20359191	      0.07336652	      3.75680690	    -16.02371316	     -7.49999987	     -5.12243855	     -2.89180120	      8.90484018	      0.34310277	      0.00598827	      5.44174010	     -8.84123896	     -7.49999987	      1.69380739	      0.47040695	     -5.48619199	     78.69659171	    -32.49188955	     14.34723875	    114.84032990	     81.43240354	     -8.24966079	    -11.40001572	     -2.07747715	     44.05814742	     72.45863154
      2.03333330	     -0.06526132	     -1.66801836	      2.10630431	     -0.98984986	      1.36070796	     -0.06422349	     -3.20803188	      3.51336163	      5.79725526	      4.22514653	      0.07374272	      3.74875027	    -16.23581175	     -7.49999987	     -5.07371787	     -2.87340748	      8.94862752	      0.36050664	      0.00629203	      5.37116454	     -8.88783517	     -7.49999987	      2.00182586	      0.20027104	     -6.18615472	     83.96824639	    -32.43914139	     16.78303394	    112.18845313	     80.82839331	     -9.11480754	    -11.57960830	     -4.81890334	     45.41453328	     72.63944136
      2.05000000	     -0.16360613	     -1.62591315	      2.34703280	     -0.99004910	      1.36041210	     -0.06464140	     -3.29728049	      3.46988993	      5.52755251	      3.98900829	      0.06962133	      3.71853349	    -16.31039807	     -7.49999987	     -4.91459689	     -2.85348973	      9.15418020	      0.37682046	      0.00657676	      5.29392319	     -8.79361082	     -7.49999987	      2.13963044	     -0.13958008	     -6.86951216	     89.60264118	    -32.19087685	     18.74320725	    108.69938347	     80.21622104	    -10.04467919	    -11.36497107	     -8.23018960	     47.07853668	     74.09535493
      2.06666670	     -0.19634477	     -1.61838811	      2.68900455	     -0.98949893	      1.36423272	     -0.06461128	     -3.38237529	      3.50472632	      5.28399011	      3.81321831	      0.06655321	      3.75409325	    -16.24448019	     -7.49999987	     -4.82519070	     -2.87834610	      9.36869588	      0.39595085	      0.00691065	      5.28801300	     -8.57544368	     -7.49999987	      2.32283014	     -0.67932244	     -6.76366895	     94.63335203	    -33.05270331	     19.78255008	    105.42403411	     79.59016830	    -10.27397171	    -11.65565778	     -8.82017048	     47.91741447	     73.76007974
